<?xml version="1.0" encoding="UTF-8"?>
<svg id="Layer_1" data-name="Layer 1" xmlns="http://www.w3.org/2000/svg" viewBox="0 0 500.17 476.13">
  <defs>
    <style>
      .cls-1 {
        fill: #016a37;
      }

      .cls-1, .cls-2 {
        fill-rule: evenodd;
      }

      .cls-1, .cls-2, .cls-3 {
        stroke-width: 0px;
      }

      .cls-2 {
        fill: #7ed487;
      }

      .cls-3 {
        fill: #fff;
      }
    </style>
  </defs>
  <path class="cls-2" d="m250.09,438.51c47.82,0,87.13-10.01,119.26-27.34v17.38h0c-.12,26.28-52.96,47.57-118.13,47.57s-118.01-21.29-118.13-47.57h0v-16.77c31.81,16.97,70.44,26.74,117.01,26.74Z"/>
  <path class="cls-2" d="m250.08,0c138.12,0,250.08,50.69,250.08,113.22s-111.97,113.22-250.08,113.22S0,175.75,0,113.22,111.97,0,250.08,0Z"/>
  <path class="cls-1" d="m.05,113.22c0,62.53,111.97,113.22,250.09,113.22s247.19-49.39,250.03-110.81c-.89,207.12-54.01,322.81-250.08,322.81S0,321.41,0,113.15"/>
  <path class="cls-3" d="m144.57,332.07h0c-1.14.52-2.28,1.03-3.42,1.54-1.04-1.51-2.07-3.01-3.11-4.51,2.08-.73,4.15-1.51,6.2-2.34,3.44-1.4,6.81-3.03,10.23-4.56-.1-.09-.2-.17-.3-.25-6.17-5.1-12.47-10.04-19.2-13.9-5.27-3.31-11.04-4.99-16.65-6.48,6.55,8.84,13.13,18.05,19.69,27.53-.09.05-.74.41-1.82.83-6.46,2.45-10.41,1.83-15.69.66,4.87,2.49,6.93,4.56,14.03,4.82,2.5.1,6.49-1.68,6.62-1.75,5.53,8.02,11.03,16.17,16.48,24.09-.3-10.13-.7-20.78-1.15-31.3-4,1.91-7.96,3.81-11.92,5.63Zm-10.58-26.89c7.77,3.4,15.03,8.51,22.17,13.73-.29-6.59-.59-13.06-.9-19.26-17.87-6.71-35.74-13.76-53.65-21.44-.43-.18-.71.25-.43.63,5.68,7.49,11.39,14.95,17.11,22.7,5.22.26,10.49,1.35,15.68,3.63h0Zm81.32-9.85h0c-17.54,2.47-35.18,4.37-52.92,5.45-.12,6.18-.25,12.64-.39,19.21,7.04-2.62,14.18-5.4,21.85-6.32,5.11-.61,10.32.03,15.5,1.62-5.53-.35-11.22-.55-16.39,1.11-6.63,1.73-12.81,4.61-18.89,7.43-.1.05-.2.1-.3.14,3.47,2.89,6.87,5.93,10.33,8.84,2.06,1.73,4.14,3.45,6.22,5.14-1.01,1.16-2.02,2.31-3.04,3.45-1.14-1.05-2.29-2.09-3.44-3.14-3.98-3.64-7.98-7.26-12.02-10.79-.24,10.48-.53,21.05-.92,31.04,5.5-5.28,10.96-11.02,16.38-17.08.13.13,4.13,3.82,6.61,4.88,7.05,3.03,9.07,1.76,13.87,1.24-5.21-1.17-9.11-2.39-15.57-7.92-1.08-.92-1.74-1.6-1.82-1.69,6.4-7.32,12.74-15.04,19.02-22.64,0,0,0,0,0,0,5.49-6.64,10.94-13.19,16.36-19.2.27-.32-.02-.84-.44-.78Zm-51.16,2.14s0-.02,0-.02c0,0,0,.02,0,.02h0Zm0-.02c.05-.19,1.77-7.05-.16-13.7,1.58,1.43,3.46,3.45,4.95,6.08,2.09,3.69,2.69,6.54,2.69,6.54,0,0,.77-4.12-.61-7.84-.45-1.24-1.58-4.39-3.76-6.56,1.7.96,3.74,2.31,5.82,4.22,3.52,3.25,5.64,6.17,5.64,6.17,0-.02-.74-4.62-3.33-7.91-2.98-3.8-6.95-5.57-9.77-6.53,1.76.05,3.81.33,6.04,1.09,4.52,1.51,7.55,3.95,7.55,3.96,0-.03-2.76-4.1-7.2-6.3-3.3-1.66-6.51-2.16-9.03-2.24.2-.31.46-.57.78-.77.77-.47,1.63-.65,1.63-.66,0,0-1.87-.67-3.48-.44-.83.12-1.49.39-1.98.68-.07-.38-.15-.79-.28-1.22-.2-.67-1.13-2.16-1.21-2.28-.08.09-.98,1.27-1.17,1.88-.12.39-.2.77-.26,1.14-.5-.45-1.16-.95-2-1.36-1.63-.79-3.49-.74-3.49-.74,0,0,.88.5,1.66,1.24.33.31.59.67.8,1.05-2.52-.75-5.75-1.33-9.03-.67-4.42.87-7.1,4.29-7.1,4.31,0,0,3-1.6,7.51-1.73,2.22-.07,4.28.31,6.05.82-2.82.08-6.77.66-9.67,3.65-2.52,2.6-3.14,6.97-3.14,6.98,0,0,2.05-2.26,5.5-4.5,2.04-1.31,4.04-2.06,5.74-2.51-2.15,1.54-3.19,4.39-3.6,5.5-1.28,3.33-.39,7.62-.39,7.63,0,0,.53-2.63,2.52-5.69,1.42-2.19,3.26-3.66,4.81-4.62-1.79,6.22.24,13.7.24,13.69,0,0,1.1-5.28,2.8-9.34.72-1.73,1.56-2.95,2.37-3.84.84,1.14,1.71,2.61,2.49,4.57,1.79,4.49,3.03,10.04,3.07,10.25Zm70.79,57.1c-1.12-.06-2.14.44-3.08,1.48-.94,1.04-1.64,2.26-2.12,3.65-.48,1.39-.73,2.73-.74,4.01-.02,1.84.45,3.33,1.4,4.47.95,1.14,2.33,1.74,4.14,1.82,1.81.08,3.25-.37,4.34-1.37h0c1.08-1,1.64-2.23,1.66-3.7.03-2.38-.52-4.69-1.63-6.91-1.11-2.22-2.44-3.39-3.97-3.46Zm2.83,11.83c-.71.54-1.72.78-3.04.72-1.32-.06-2.33-.34-3.01-.83h0c-.69-.49-1.03-1.11-1.02-1.86,0-.75.19-1.66.54-2.72.35-1.07.86-2.01,1.53-2.84.66-.83,1.39-1.23,2.17-1.19,1.08.05,2,.91,2.77,2.53.77,1.63,1.14,3.11,1.13,4.45,0,.62-.36,1.21-1.07,1.74Zm-5.33-15.67c.74-.86,1.47-1.73,2.21-2.6-.74-.94-1.49-1.88-2.24-2.83-.74.86-1.48,1.73-2.22,2.58.75.95,1.5,1.9,2.25,2.85Zm4.99.25c.74-.87,1.48-1.75,2.22-2.63-.75-.93-1.5-1.86-2.25-2.8-.74.87-1.48,1.74-2.22,2.61.75.94,1.5,1.88,2.25,2.82Zm7.67,26.66s0,0,0,0c0,0,0,0,0,0h0Zm56.58-36.23c.04,6.38.03,12.64-.05,18.55-.02,1.39-.44,2.52-1.26,3.42-.82.9-1.75,1.41-2.8,1.54-.28.03-.56.07-.84.1-.01,0-.03,0-.04,0-1.3.16-2.6.31-3.9.45-1.05.11-2.03.02-2.92-.29,1.03-1.02,1.83-2.13,2.41-3.33.58-1.2.87-2.38.88-3.52.03-3.52-1.91-5.15-5.81-4.82h0c-1.68.13-3.79.74-6.31,1.78-.31,1.01-.62,2.02-.93,3.02.02.02.04.04.06.06.88-.36,1.38-.56,1.49-.58,1.54,3.52,3.02,6,4.49,7.55-1.38.7-2.92,1.11-4.6,1.22-.72.05-1.44.09-2.17.14-.03,0-.07,0-.1,0-.18.01-.35.03-.53.04-.91.06-1.8-.2-2.68-.81-.88-.61-1.37-1.39-1.47-2.33.03-2.12-.31-4.04-1.01-5.74-.36-.86-.87-1.54-1.53-2.03-.66-.5-1.43-.73-2.31-.69-1.3.05-2.43.61-3.39,1.66-.96,1.05-1.98,2.71-3.07,4.94-1.08,2.23-2.01,3.75-2.78,4.61-.77.86-1.65,1.29-2.66,1.31-.21,0-.43,0-.64,0-.01,0-.03,0-.04,0-.47,0-.94.01-1.41.02-2.79.02-4.16-1.14-4.13-3.52.03-2.32.04-4.69.05-7.1-.72,0-1.45-.01-2.17-.02-.01,4.84-.06,9.53-.16,13.97-.06,2.8-1.41,4.13-4.01,4.11-1.04-.01-2.01-.08-2.92-.2-.02.69-.04,1.36-.06,2.03.12.19.47.36,1.06.5.59.14,1.13.21,1.64.21,1.98.02,3.54-.51,4.68-1.61,1.13-1.1,1.73-2.95,1.79-5.66.04-1.78.07-3.6.09-5.46.01,0,.02,0,.03,0,.07,2.06.35,3.47.87,4.28.51.8,1.59,1.2,3.22,1.18.48,0,.95-.01,1.43-.02.01,0,.03,0,.04,0,.04,0,.08,0,.13,0,1.29-.02,2.41-.37,3.38-1.06.97-.68,1.92-1.88,2.86-3.62.02,0,.05,0,.07,0,.19,1.52.69,2.65,1.52,3.44.83.79,1.97,1.14,3.42,1.07,1.45-.07,2.73-.58,3.85-1.54h0c1.11-.97,1.8-2.35,2.05-4.18.02,0,.04,0,.06,0,0,.29,0,.57-.01.86,0,.49.07,1.04.24,1.67.16.62.38,1.08.66,1.4.28.31.7.57,1.27.77.57.2,1.25.27,2.05.22.13,0,.26-.02.39-.03.03,0,.06,0,.09,0,.64-.05,1.28-.1,1.92-.15,2.48-.2,4.73-1.01,6.75-2.42,1.64,1.06,3.6,1.45,5.88,1.19.93-.11,1.86-.22,2.79-.33.02,0,.03,0,.05,0,.31-.04.62-.08.94-.12,1.55-.19,2.93-.87,4.14-2.05.61-.61,1.11-1.4,1.49-2.37.38-.98.57-2.08.59-3.31.08-5.94.1-12.23.05-18.64-.72.08-1.44.16-2.15.24Zm-30.16,24.83c-.73.79-1.66,1.21-2.8,1.26-1.14.05-2.06-.08-2.75-.39-.69-.3-1.45-.85-2.27-1.64.48-.99.96-1.99,1.43-3,1.27-2.77,2.7-4.23,4.29-4.28,1.02-.04,1.82.44,2.39,1.44.57,1,.84,2.16.83,3.46-.02,1.3-.39,2.35-1.11,3.14Zm16.54-2.11c-1.39-1.08-2.92-3.35-4.64-6.97,1.24-.41,2.58-.68,4.02-.81,2.7-.24,4.05.51,4.04,2.25h0c0,.81-.31,1.72-.92,2.74-.6,1.02-1.44,1.95-2.5,2.78Zm20.97-23.6c.05,8.91,0,17.59-.19,25.41.72-.11,1.43-.23,2.15-.34.2-7.81.25-16.46.19-25.35-.72.1-1.43.19-2.15.28Zm13.68,8.85c-1.5.27-2.81,1.34-3.95,3.22-1.14,1.88-1.73,4-1.76,6.33-.03,1.87.4,3.19,1.29,3.98.89.8,2.03,1.05,3.42.79,1.39-.27,2.46-.74,3.19-1.42.74-.68,1.26-1.67,1.55-2.98.02,0,.04,0,.06-.01,0,.44-.02.87-.03,1.3-.06,2.79-.68,4.7-1.83,5.84-.58.57-1.2,1-1.88,1.27-.67.28-1.64.55-2.9.79h0c-1.26.23-2.28.26-3.06.07-.03.78-.05,1.55-.08,2.32.54.28,1.64.27,3.29-.05,1.65-.32,3.07-.77,4.24-1.37,1.17-.6,2.22-1.67,3.14-3.25.92-1.58,1.42-3.82,1.48-6.83.06-3-.5-5.53-1.66-7.5-1.16-1.98-2.66-2.83-4.48-2.51Zm2.32,10.9c-.46.24-1.17.46-2.15.65h0c-2.79.53-4.17-.37-4.13-2.76.02-1.41.41-2.69,1.16-3.84.75-1.15,1.68-1.83,2.81-2.03,1.13-.21,2.05.29,2.75,1.47.7,1.17,1.04,2.97.99,5.34-.49.54-.96.94-1.42,1.18Zm24.69-1.49c.75-.93,1.5-1.88,2.24-2.83-.72-.55-1.44-1.11-2.15-1.68-.74.96-1.48,1.91-2.22,2.86.71.56,1.42,1.11,2.13,1.65Zm39.99-21.04c0,1.26-.41,2.41-1.2,3.44-.8,1.04-1.72,1.74-2.75,2.13-.29.11-.59.22-.88.32-.03.01-.06.03-.09.04-.59.22-1.19.43-1.78.65-.58.21-.97.31-1.18.31-.1,0-.25,0-.44-.02-.19-.01-.34-.06-.45-.13-.11-.08-.24-.21-.41-.39-.17-.18-.29-.58-.37-1.2.54-.19,1.07-.38,1.61-.57,0-.72,0-1.44.01-2.16-.66.23-1.32.47-1.99.7-.93.32-2.22.35-3.87.05-1.65-.3-3.28-.6-4.89-.9-1.61-.29-2.9-.31-3.85-.01-.96.29-2.07.89-3.33,1.8,0,.95-.01,1.89-.02,2.83.28-.3.78-.66,1.48-1.09.71-.43,1.47-.78,2.29-1.03.82-.26,2.02-.22,3.59.09,1.57.3,3.14.55,4.69.72,1.55.18,2.8.09,3.73-.23,0,.02,0,.04,0,.06-1.43.76-3.08,1.69-4.94,2.78-1.87,1.09-3.47,1.95-4.82,2.59-1.35.64-2.94,1.25-4.76,1.82,0,0,0,0,0,.01-.77.24-1.53.47-2.3.7-.03,0-.06.01-.09.02-.29.09-.57.17-.86.26-1.81.54-3.1.39-3.87-.45-.77-.85-1.18-2.24-1.24-4.19.78-.22,1.55-.44,2.33-.66,0-.75.01-1.49.02-2.25-.86.24-1.71.48-2.57.72-.94.26-2.14.21-3.6-.16-1.46-.37-2.88-.77-4.26-1.2-1.38-.43-2.44-.56-3.19-.38-1.26.3-2.53.88-3.8,1.75,0,.99,0,1.98-.02,2.96.3-.29.81-.65,1.54-1.05.72-.4,1.43-.69,2.12-.86.69-.17,1.41-.2,2.15-.11.74.09,2.11.47,4.08,1.08-3.78,1.4-6.76,3.29-8.94,5.7-2.19,2.41-3.3,5.08-3.37,7.92-.06,2.84.75,4.82,2.48,6.02,1.73,1.19,4.15,1.36,7.28.53h0c1.33-.35,2.9-.83,4.71-1.45,1.82-.62,2.93-1.06,3.34-1.3.02-.74.04-1.48.07-2.23-1.35.68-3.9,1.57-7.67,2.59-2.7.73-4.8.64-6.29-.27-1.5-.91-2.22-2.43-2.17-4.62.06-2.6,1.47-5.04,4.24-7.27,2.77-2.24,6.51-3.99,11.21-5.34.05,1.24.11,2.24.19,3.02.08.78.29,1.65.64,2.59.16.46.38.78.64.97.27.19.58.38.93.56.51.24,1.22.27,2.13.09,0,0,0,0,0,0,.19-.04.38-.08.58-.12,1.27-.38,2.55-.78,3.82-1.17,1.97-.61,3.48-1.23,4.52-1.82,1.05-.59,1.82-1.04,2.32-1.36.5-.31,1.15-.79,1.95-1.43.8-.64,1.38-1.12,1.75-1.43.37-.31,1.04-.9,2.01-1.78.97-.87,1.66-1.49,2.06-1.86.08,1.96.36,3.15.86,3.59.49.44,1.57.36,3.24-.25.28-.1.55-.2.83-.3.03-.01.06-.03.09-.04.28-.1.55-.2.83-.3,1.53-.57,2.9-1.55,4.08-2.95.6-.72,1.08-1.58,1.44-2.57.36-.99.54-2.05.54-3.17.01-5.4.02-10.84.02-16.31-.71.25-1.41.5-2.12.74,0,5.46,0,10.89-.02,16.26Zm7.27-18.85c0,7.54,0,15.07-.01,22.56.71-.28,1.42-.57,2.13-.86v-22.49c-.71.26-1.41.53-2.12.79Zm-146.21-29.01c-.07-1.81-.14-3.55-.21-5.19-1.91,0-3.83-.02-5.74-.04.07,1.64.13,3.37.2,5.18,1.92.03,3.83.04,5.75.05Zm21.85,31.58c5.75-.18,11.5-.46,17.23-.84,1.86-2.44,3.71-4.86,5.57-7.25-.18-6.77-.39-13.27-.61-19.21-5.74.4-11.49.71-17.23.94.07,1.98.15,4.02.22,6.11,3.83-.15,7.66-.34,11.49-.57.14,4.19.28,8.6.4,13.12-5.74.36-11.48.63-17.24.8.06,2.27.12,4.58.17,6.9Zm-33.35-31.73c-.07-1.81-.13-3.54-.19-5.17-1.92-.04-3.83-.09-5.75-.15.06,1.64.12,3.36.18,5.17,1.92.06,3.84.11,5.76.16Zm24.26,46.1c1.92-.03,3.84-.07,5.75-.12-.03-2.37-.07-4.74-.12-7.11-1.92.05-3.83.09-5.75.11.04,2.37.08,4.74.12,7.12Zm135.26-70.17c-1.93.5-3.86.99-5.79,1.47.06,11.43.11,23.11.14,34.84,1.89-.57,3.77-1.15,5.66-1.74,0-11.53,0-23.05,0-34.56Zm-146.78,70.2c1.92.02,3.84.03,5.76.02-.03-2.38-.07-4.76-.12-7.13-1.92,0-3.84,0-5.76-.03.04,2.37.08,4.75.12,7.13Zm70.04-18.48c20.71-2.8,41.34-7.01,61.88-12.74,1.88-2.53,3.75-5.04,5.64-7.53-.05-9.85-.12-19.61-.19-29.09-1.93.47-3.86.92-5.78,1.37,0,0,0,0,0,0,.11,9.41.22,19.26.29,29.25-1.18.31-2.37.62-3.55.92-.05-6.04-.12-12.03-.2-17.87-1.91.43-3.83.85-5.74,1.26.09,5.86.18,11.91.25,18.03-1.89.46-3.79.91-5.69,1.34-.08-6.19-.18-12.29-.3-18.17-1.91.39-3.82.77-5.74,1.13.13,5.9.25,12.05.34,18.31-1.9.41-3.8.81-5.7,1.2-.11-6.32-.24-12.52-.38-18.43-1.91.35-3.82.68-5.73,1.01.16,5.92.3,12.17.42,18.55-6.89,1.32-13.79,2.49-20.69,3.51-.1-4.38-.21-8.67-.33-12.81,5.73-.78,11.45-1.65,17.18-2.61-.05-2.04-.1-4.06-.16-6.03-5.74.94-11.47,1.8-17.21,2.56-1.85,2.24-3.69,4.51-5.54,6.83.13,4.15.24,8.47.35,12.87-1.19.16-2.38.32-3.57.47-.16-6.63-.35-13.05-.56-19.01-5.74.67-11.48,1.25-17.21,1.74-1.84,2.15-3.68,4.34-5.53,6.58.21,6.28.4,13.01.56,19.9,3.82-.33,7.64-.7,11.45-1.12,1.86-2.49,3.71-4.95,5.57-7.4-3.82.44-7.63.84-11.46,1.2-.12-4.49-.25-8.86-.39-13.05,3.83-.33,7.65-.7,11.47-1.11.13,4.17.26,8.52.37,12.96.11,4.44.21,8.99.28,13.55-5.71.75-11.43,1.38-17.16,1.9.04,2.32.08,4.65.11,6.97,5.72-.56,11.44-1.23,17.15-2.03,1.88-2.55,3.75-5.1,5.61-7.63-.04-2.27-.08-4.53-.12-6.78Zm-76.25-2.69c.06,2.27.11,4.57.17,6.9,5.77.12,11.54.15,17.3.08,1.87-2.35,3.73-4.69,5.59-7.01-.18-6.82-.39-13.34-.61-19.26-1.92.05-3.83.08-5.75.11,0,0,0,0,0,0,.22,5.91.43,12.43.61,19.25-3.84.05-7.68.05-11.53.01-.18-6.82-.38-13.33-.59-19.21-5.76-.03-11.51-.14-17.28-.34-1.86,1.89-3.71,3.83-5.58,5.81.18,6.22.36,12.95.51,19.91,3.86.21,7.71.38,11.56.5,1.87-2.26,3.74-4.52,5.6-6.75Zm-11.9-13.43c3.85.14,7.69.24,11.53.3.13,4.17.26,8.57.38,13.12-3.85-.08-7.69-.19-11.55-.35-.11-4.53-.24-8.91-.36-13.07Z"/>
</svg>