<?xml version="1.0" encoding="utf-8"?>
<!-- Generator: Adobe Illustrator 28.0.0, SVG Export Plug-In . SVG Version: 6.00 Build 0)  -->
<svg version="1.1" id="Layer_1" xmlns="http://www.w3.org/2000/svg" xmlns:xlink="http://www.w3.org/1999/xlink" x="0px" y="0px"
	 viewBox="0 0 96.3 30.2" style="enable-background:new 0 0 96.3 30.2;" xml:space="preserve">
<style type="text/css">
	.st0{fill-rule:evenodd;clip-rule:evenodd;fill:#F2F2F2;}
</style>
<g>
	<path class="st0" d="M95.6,27.2v-7.3h0.7v7.3H95.6z M94.4,2.9h1.9v11.2h-1.9V2.9z M80.1,26.2l0.7,0.7l-0.7,0.7l-0.7-0.7L80.1,26.2z
		 M93.3,26.7c-0.4,0.3-0.8,0.5-1.3,0.5h-0.3l0,0h-0.3c-0.5,0-0.9-0.1-1.1-0.3c-0.2-0.2-0.3-0.6-0.3-1.3c-0.1,0.1-0.4,0.2-0.7,0.4
		c-0.3,0.2-0.5,0.3-0.7,0.3c-0.1,0.1-0.3,0.1-0.6,0.3c-0.3,0.1-0.5,0.2-0.6,0.3c-0.2,0-0.4,0.1-0.8,0.2c-0.3,0.1-0.8,0.1-1.5,0.1H84
		l-0.2,0v0c-0.3,0-0.5-0.1-0.7-0.2c-0.1-0.1-0.2-0.2-0.3-0.3c-0.1-0.1-0.2-0.2-0.2-0.4c-0.1-0.3-0.2-0.6-0.2-0.9
		c0-0.3-0.1-0.6-0.1-1c-1.5,0-2.8,0.3-3.7,0.7c-0.9,0.5-1.4,1.1-1.4,1.9c0,0.7,0.3,1.3,0.8,1.7c0.5,0.4,1.2,0.6,2.1,0.6
		c1.2,0,2.1-0.1,2.5-0.2v0.8c-0.1,0-0.5,0.1-1.1,0.1c-0.6,0-1.1,0.1-1.5,0.1l0,0c-1,0-1.8-0.3-2.4-0.8c-0.6-0.6-0.9-1.3-0.9-2.2
		c0-0.9,0.4-1.6,1.1-2.2c0.7-0.6,1.7-0.9,2.9-1c-0.7-0.3-1.1-0.6-1.3-0.6c-0.2-0.1-0.5-0.1-0.7-0.1c-0.2,0-0.5,0-0.7,0.1
		c-0.2,0.1-0.4,0.1-0.5,0.2v-0.9c0.4-0.2,0.8-0.3,1.2-0.3c0.2,0,0.6,0.1,1,0.3c0.5,0.2,0.9,0.5,1.4,0.7c0.5,0.2,0.9,0.3,1.2,0.3h0.8
		v0.7h-0.8c0,0.6,0.2,1.1,0.4,1.4c0.3,0.3,0.7,0.5,1.3,0.5h0.3l0,0h0.7v0h0c0.6,0,1.1,0,1.6-0.1c0.4-0.1,1-0.2,1.6-0.3
		c0.6-0.1,1.2-0.3,1.6-0.3v0c-0.3,0-0.7-0.1-1.2-0.3c-0.5-0.2-1-0.5-1.6-0.7c-0.5-0.3-0.9-0.4-1.2-0.4c-0.3,0-0.5,0-0.8,0.1
		c-0.2,0.1-0.4,0.1-0.5,0.2v-0.9c0.4-0.2,0.8-0.2,1.1-0.2c0.3,0,0.7,0.1,1.3,0.4c0.5,0.3,1.1,0.5,1.6,0.8c0.5,0.3,1,0.4,1.3,0.4h0.7
		v0.7h-0.5c0,0.2,0.1,0.3,0.1,0.4c0.1,0.1,0.1,0.1,0.1,0.2c0,0,0.1,0.1,0.1,0.1c0.1,0,0.1,0,0.1,0.1c0.1,0,0.2,0,0.4,0h0.6l0,0h0.3
		c0.3,0,0.6-0.1,0.9-0.4c0.3-0.2,0.4-0.6,0.4-1v-5.2h0.7v5.2c0,0.4-0.1,0.7-0.2,1C93.6,26.3,93.5,26.5,93.3,26.7z M71.1,14.1v1.9
		l-1.9,1.9h-5.6v-1.9h5.6v-3.7V8.5h-3.7v3.7h3.7l-1.9,1.9h-3.7V8.5l1.9-1.9h5.6v5.6h1.2V8.5l1.9-1.9h5.6v1.9h-5.6v3.7h6.8V6.6h1.9
		v5.6h1.9V6.6h1.9v5.6h1.9V6.6h1.9v5.6h1.2V2.9h1.9v9.3l-1.9,1.9H71.1z M64.3,25v-5.2H65v5.2c0,0.4-0.1,0.7-0.2,1
		c-0.1,0.3-0.3,0.5-0.5,0.7C64,27,63.5,27.2,63,27.2h-0.3l0,0h-0.9c-0.7,0-1.4-0.2-1.9-0.5c-0.7,0.4-1.4,0.5-2.2,0.5h-0.6l0,0h-0.1
		c-0.3,0-0.5,0-0.7-0.1c-0.2-0.1-0.3-0.2-0.4-0.3c-0.1-0.1-0.2-0.2-0.2-0.4c-0.1-0.2-0.1-0.3-0.1-0.5v-0.2h0
		c-0.1,0.5-0.3,0.9-0.6,1.2l0,0c-0.4,0.3-0.8,0.4-1.2,0.4c-0.5,0-0.8-0.1-1.1-0.4c-0.3-0.2-0.4-0.6-0.5-1h0c-0.3,0.5-0.6,0.8-0.9,1
		c-0.3,0.2-0.7,0.3-1.1,0.3h0l0,0h-0.5c-0.5,0-0.9-0.1-1.1-0.4c-0.2-0.2-0.3-0.6-0.3-1.2h0v1.6c0,0.8-0.2,1.4-0.5,1.7
		c-0.4,0.3-0.9,0.5-1.5,0.5c-0.2,0-0.3,0-0.5-0.1c-0.2,0-0.3-0.1-0.3-0.1v-0.6c0.3,0,0.6,0,0.9,0c0.8,0,1.3-0.4,1.3-1.2v-3.9h0.7v2
		c0,0.7,0.5,1,1.4,1h0.5l0,0h0.2c0.3,0,0.6-0.1,0.9-0.4c0.2-0.2,0.5-0.7,0.9-1.3c0.3-0.6,0.7-1.1,1-1.3c0.3-0.3,0.7-0.4,1.1-0.4
		c0.3,0,0.5,0.1,0.7,0.2c0.2,0.1,0.4,0.3,0.5,0.6c0.2,0.5,0.3,1,0.3,1.6c0,0.3,0.2,0.5,0.5,0.7c0.3,0.2,0.6,0.3,0.9,0.3h0.2l0,0
		l0.7,0c0.5,0,1-0.1,1.5-0.2c-0.5-0.5-1-1.3-1.5-2.3c0,0-0.2,0.1-0.5,0.1l0,0l0.3-0.8c0.8-0.2,1.5-0.4,2.1-0.4l0,0
		c1.3,0,1.9,0.5,1.9,1.5c0,0.3-0.1,0.7-0.3,1c-0.2,0.3-0.4,0.6-0.8,0.9c0.3,0.1,0.6,0.2,1,0.2h1.3l0,0H63c0.3,0,0.6-0.1,0.9-0.4
		C64.2,25.8,64.3,25.5,64.3,25z M54.6,24.2c-0.2-0.3-0.4-0.4-0.8-0.4c-0.5,0-1,0.4-1.4,1.2L52,25.8c0.3,0.2,0.5,0.4,0.7,0.5
		c0.2,0.1,0.5,0.1,0.9,0.1c0.4,0,0.7-0.1,0.9-0.3c0.2-0.2,0.3-0.5,0.3-0.9C54.9,24.8,54.8,24.5,54.6,24.2z M60.7,25.1
		c0.2-0.3,0.3-0.5,0.3-0.8h0c0-0.5-0.4-0.7-1.3-0.7c-0.5,0-0.9,0-1.3,0.1c0.6,1,1.1,1.7,1.5,2.1C60.2,25.6,60.5,25.4,60.7,25.1z
		 M46,29.4C46,29.4,46,29.4,46,29.4C46,29.4,46,29.4,46,29.4L46,29.4z M55,14.1v-1.9h5.6V8.5h-3.7V6.6h5.6v5.6l-1.9,1.9H55z
		 M51.9,17.8v-1.9h1.9v1.9H51.9z M48.2,17.8v-1.9h1.9v1.9H48.2z M46.3,14.1v-1.9l-1.9,1.9h-3.7V8.5l1.9-1.9h5.6v5.6h3.7V6.6h1.9v5.6
		l-1.9,1.9H46.3z M46.3,8.5h-3.7v3.7h3.7V8.5z M46.3,2.9h1.9v1.9h-1.9V2.9z M42.6,2.9h1.9v1.9h-1.9V2.9z M41.1,21.1l0.7-0.7l0.7,0.7
		l-0.7,0.7L41.1,21.1z M42.7,21.1l0.7-0.7l0.7,0.7l-0.7,0.7L42.7,21.1z M41.7,23.3c0.3-0.3,0.6-0.4,1-0.4c0.5,0,0.9,0.3,1.3,0.9
		c0.4,0.6,0.5,1.2,0.5,1.9c0,0.4-0.2,0.8-0.5,1.1h0c-0.3,0.3-0.8,0.4-1.4,0.4c-0.6,0-1-0.2-1.3-0.5c-0.3-0.3-0.5-0.7-0.5-1.2
		c0-0.4,0.1-0.7,0.2-1.1C41.1,23.9,41.4,23.6,41.7,23.3z M41.6,26.1L41.6,26.1c0.2,0.1,0.5,0.2,1,0.2s0.8-0.1,1-0.2
		c0.2-0.2,0.3-0.3,0.3-0.5c0-0.4-0.1-0.8-0.4-1.2c-0.3-0.4-0.6-0.7-0.9-0.7c-0.3,0-0.5,0.1-0.7,0.4c-0.2,0.2-0.4,0.5-0.5,0.8
		c-0.1,0.3-0.2,0.6-0.2,0.8S41.4,26,41.6,26.1z M31.4,13.2L31.4,13.2L25.2,20c0,0,0.2,0.2,0.6,0.4c2.1,1.2,3.3,1.4,5,1.5
		c-1.5,0.3-2.2,0.7-4.4,0.2c-0.8-0.2-2.1-1-2.1-1l-5.2,5.8l0.3-8.8c1.3,0.8,2.5,1.6,3.8,2.4l1.1,0.7l1-1.1c-0.7-0.4-1.3-0.7-2-1.1
		c-1.1-0.6-2.2-1.3-3.3-1.9c0,0,0.1,0,0.1-0.1c2-1.1,3.9-2.2,6.1-2.9C27.7,13.4,29.6,13.2,31.4,13.2c-1.7-0.3-3.3-0.3-5,0.1
		c-2.5,0.5-4.8,1.6-7,2.7l0.2-5.6l17.1-3.4v0c0.1,0,0.2,0.1,0.1,0.2L31.4,13.2z M22.7,2.8c-0.7-0.2-1.4-0.2-1.9-0.1
		c0.9,0.2,2.2,0.7,3.1,1.9c0.8,1,1,2.5,1,2.5s-0.7-0.8-1.8-1.8c-0.7-0.6-1.3-0.9-1.9-1.2c0.7,0.7,1,1.7,1.2,2.1
		c0.4,1.2,0.2,2.5,0.2,2.5s-0.2-0.8-0.8-2c-0.5-0.8-1.1-1.4-1.6-1.8c0.6,2.2,0,4.3,0,4.4c0-0.1-0.4-1.7-0.9-3.1
		c-0.2-0.6-0.5-1.1-0.8-1.4c-0.3,0.3-0.5,0.8-0.8,1.4c-0.6,1.4-0.9,3.1-0.9,3.1s-0.6-2.2,0-4.4c-0.5,0.4-1.1,1-1.6,1.8
		c-0.7,1.1-0.8,2-0.8,2S14,7.3,14.4,6.2c0.1-0.4,0.5-1.4,1.2-2.1c-0.5,0.3-1.2,0.6-1.9,1.2C12.6,6.2,12,7.1,12,7.1s0.2-1.5,1-2.5
		c0.9-1.2,2.2-1.7,3.1-1.9c-0.6-0.1-1.2-0.1-1.9,0.1c-1.5,0.3-2.4,1.1-2.4,1.1s0.9-1.4,2.3-2c1.1-0.5,2.1-0.5,2.9-0.3
		c-0.1-0.1-0.1-0.2-0.3-0.3c-0.2-0.2-0.5-0.4-0.5-0.4s0.6-0.2,1.1,0c0.3,0.1,0.5,0.3,0.6,0.4C18,1.1,18,1,18,0.8
		C18.1,0.6,18.4,0,18.4,0c0,0,0.3,0.6,0.4,0.8c0,0.2,0.1,0.3,0.1,0.5C19,1.1,19.3,1,19.5,0.9c0.5-0.2,1.1,0,1.1,0S20.4,1,20.1,1.2
		c-0.1,0.1-0.2,0.2-0.3,0.3c0.8-0.1,1.9-0.1,2.9,0.3c1.4,0.6,2.3,2,2.3,2S24.1,3.2,22.7,2.8z M20.1,9.3C20.1,9.3,20.1,9.3,20.1,9.3
		C20.1,9.3,20.1,9.3,20.1,9.3L20.1,9.3z M17.5,15.9c-2.3-1.1-4.6-2.2-7-2.7l0,0c-1.6-0.4-3.3-0.3-5-0.1L0,7.2
		c-0.1-0.1,0-0.3,0.1-0.2l17.1,3.4L17.5,15.9z M10.8,14c2.1,0.7,4.1,1.8,6.1,2.9c0,0,0.1,0,0.1,0.1c-1.1,0.6-2.2,1.3-3.3,1.9
		c-0.7,0.4-1.3,0.7-2,1.1l1,1.1l1.1-0.7l0,0c1.3-0.8,2.5-1.6,3.8-2.4l0.3,8.8l-5.2-5.8c0,0-1.3,0.8-2.1,1c-2.3,0.5-2.9,0.1-4.4-0.2
		c1.7-0.1,2.9-0.3,5-1.5c0.3-0.2,0.5-0.4,0.6-0.4l-6.2-6.8C7.2,13.2,9.1,13.4,10.8,14z M67.4,27.2h-0.7v-7.3h0.7V27.2z M72.4,26.1
		c-0.1,0.4-0.3,0.7-0.5,0.8c-0.2,0.2-0.6,0.3-1,0.3c-0.5,0-0.8-0.1-1.1-0.4c-0.3-0.3-0.4-0.7-0.4-1.3c0-0.7,0.2-1.3,0.6-1.8
		c0.4-0.5,0.8-0.7,1.3-0.7c0.6,0,1.1,0.3,1.5,1c0.4,0.6,0.6,1.4,0.6,2.4c0,0.9-0.1,1.6-0.4,2.1c-0.3,0.5-0.6,0.7-1,0.9
		c-0.4,0.1-0.8,0.2-1.4,0.2c-0.5,0-0.9-0.1-1.1-0.2v-0.8c0.3,0.1,0.6,0.2,1,0.2l0,0c0.4,0,0.7,0,0.9-0.1c0.2,0,0.4-0.1,0.6-0.3
		c0.4-0.3,0.6-0.9,0.6-1.7L72.4,26.1L72.4,26.1z M72.1,24.4c-0.2-0.4-0.5-0.6-0.9-0.6c-0.4,0-0.7,0.1-0.9,0.4
		c-0.2,0.3-0.4,0.7-0.4,1.1c0,0.7,0.5,1.1,1.4,1.1h0c0.3,0,0.6,0,0.7-0.1c0.1,0,0.3-0.1,0.5-0.3C72.4,25.3,72.3,24.7,72.1,24.4z"/>
</g>
</svg>
